<svg width="1378" height="1377" viewBox="0 0 1378 1377" fill="none" xmlns="http://www.w3.org/2000/svg">
<path d="M736.632 650.108C719.427 639.838 719.427 614.162 736.632 603.892L985.019 455.615C1002.22 445.344 1023.73 458.182 1023.73 478.723V775.277C1023.73 795.818 1002.22 808.656 985.019 798.385L736.632 650.108Z" fill="url(#paint0_linear_19_6)"/>
<path fill-rule="evenodd" clip-rule="evenodd" d="M962.788 881.382C976.215 889.334 979.852 906.73 969.842 918.492C887.301 1015.48 764.335 1077 627 1077C378.472 1077 177 875.528 177 627C177 378.472 378.472 177 627 177C763.329 177 885.499 237.624 968.022 333.383C978.122 345.103 974.566 362.549 961.149 370.562L795.516 469.477C791.256 472.021 786.35 473.368 781.345 473.368H704.286C700.406 473.368 696.584 472.53 693.004 471.082C672.342 462.728 649.665 458.114 625.875 458.114C529.57 458.114 451.5 533.727 451.5 627C451.5 720.273 529.57 795.886 625.875 795.886C651.368 795.886 675.584 790.588 697.411 781.066C701.2 779.413 705.283 778.453 709.437 778.453H781.399C786.37 778.453 791.244 779.782 795.485 782.294L962.788 881.382Z" fill="url(#paint1_linear_19_6)"/>
<path fill-rule="evenodd" clip-rule="evenodd" d="M1201 54C1201 151.754 1121.75 231 1024 231C1121.75 231 1201 310.246 1201 408C1201 310.246 1280.25 231 1378 231C1280.25 231 1201 151.754 1201 54Z" fill="#FFA500"/>
<path fill-rule="evenodd" clip-rule="evenodd" d="M177 0C177 97.7544 97.7544 177 0 177C97.7544 177 177 256.246 177 354C177 256.246 256.246 177 354 177C256.246 177 177 97.7544 177 0Z" fill="#FFA500"/>
<path fill-rule="evenodd" clip-rule="evenodd" d="M354 1023C354 1120.75 274.754 1200 177 1200C274.754 1200 354 1279.25 354 1377C354 1279.25 433.246 1200 531 1200C433.246 1200 354 1120.75 354 1023Z" fill="#FF0000"/>
<path d="M1090 629L1298 628" stroke="#FF0000" stroke-width="30" stroke-linecap="round"/>
<path d="M1090 711L1258.62 806.82" stroke="#FF0000" stroke-width="30" stroke-linecap="round"/>
<path d="M1082 529.965L1257.77 448" stroke="#FF0000" stroke-width="30" stroke-linecap="round"/>
<defs>
<linearGradient id="paint0_linear_19_6" x1="723.729" y1="627" x2="1023.73" y2="627" gradientUnits="userSpaceOnUse">
<stop stop-color="#FFA500"/>
<stop offset="0.9999" stop-color="#FF0000"/>
<stop offset="1" stop-color="#800080"/>
</linearGradient>
<linearGradient id="paint1_linear_19_6" x1="627" y1="177" x2="627" y2="1077" gradientUnits="userSpaceOnUse">
<stop stop-color="#FFA500"/>
<stop offset="0.9999" stop-color="#FF0000"/>
<stop offset="1" stop-color="#800080"/>
</linearGradient>
</defs>
</svg>
